Cold Blood is a television series produced by ITV between 2005 and 2008. Three series of the show have been broadcast.

The program stars Matthew Kelly as Brian Wicklow, a former serial killer who assists the police with investigations. Also starring is John Hannah, as Jake Osborne; and Jemma Redgrave as Detective Sergeant Granger.

It has good reviews and is of reasonable picture and sound quality.Also it is quite rare to find on the internet.


 
http://www.imdb.com/title/tt1148750/

 
http://www.itv.com/drama/copsandcrime/coldblood/abouttheshow.html


File Info:

General
Complete name                            : P:\VIDEOS\Cold Blood\Cold Blood 3-1.avi
Format                                   : DivX
Format/Info                              : Hack of AVI
File size                                : 896 MiB
Duration                                 : 1h 7mn
Overall bit rate                         : 1 862 Kbps

Video
ID                                       : 0
Format                                   : MPEG-4 Visual
Format settings, BVOP                    : 1
Format settings, QPel                    : No
Format settings, GMC                     : No warppoints
Format settings, Matrix                  : Default (H.263)
Muxing mode                              : Packed bitstream
Codec ID                                 : DX50
Codec ID/Hint                            : DivX 5
Duration                                 : 1h 7mn
Bit rate                                 : 1 597 Kbps
Width                                    : 720 pixels
Height                                   : 576 pixels
Display aspect ratio                     : 16:9
Frame rate                               : 25.000 fps
Standard                                 : PAL
Color space                              : YUV
Chroma subsampling                       : 4:2:0
Bit depth                                : 8 bits
Scan type                                : Progressive
Compression mode                         : Lossy
Bits/(Pixel*Frame)                       : 0.154
Stream size                              : 768 MiB (86%)
Title                                    : Video 
Writing library                          : DivX 2151

Audio
ID                                       : 1
Format                                   : MPEG Audio
Format version                           : Version 1
Format profile                           : Layer 3
Codec ID                                 : 55
Codec ID/Hint                            : MP3
Duration                                 : 1h 7mn
Bit rate mode                            : Constant
Bit rate                                 : 256 Kbps
Channel(s)                               : 2 channels
Sampling rate                            : 48.0 KHz
Compression mode                         : Lossy
Stream size                              : 123 MiB (14%)
Alignment                                : Split accross interleaves
Interleave, duration                     : 40 ms (1.00 video frame)
Interleave, preload duration             : 500 ms
Title                                    : Audio 

